<mxfile host="app.diagrams.net" modified="2023-10-21T08:01:12.791Z" agent="Mozilla/5.0 (Macintosh; Intel Mac OS X 10_15_7) AppleWebKit/537.36 (KHTML, like Gecko) Chrome/118.0.0.0 Safari/537.36" etag="pgc64ILVAsyoICB8I-qM" version="22.0.6" type="github">
  <diagram id="C5RBs43oDa-KdzZeNtuy" name="Page-1">
    <mxGraphModel dx="965" dy="835" grid="1" gridSize="10" guides="1" tooltips="1" connect="1" arrows="1" fold="1" page="1" pageScale="1" pageWidth="827" pageHeight="1169" math="0" shadow="0">
      <root>
        <mxCell id="WIyWlLk6GJQsqaUBKTNV-0" />
        <mxCell id="WIyWlLk6GJQsqaUBKTNV-1" parent="WIyWlLk6GJQsqaUBKTNV-0" />
        <mxCell id="QhidVBxk3gNzxvD4NKaG-3" value="" style="edgeStyle=orthogonalEdgeStyle;rounded=0;orthogonalLoop=1;jettySize=auto;html=1;" edge="1" parent="WIyWlLk6GJQsqaUBKTNV-1" source="QhidVBxk3gNzxvD4NKaG-0" target="QhidVBxk3gNzxvD4NKaG-1">
          <mxGeometry relative="1" as="geometry" />
        </mxCell>
        <mxCell id="QhidVBxk3gNzxvD4NKaG-0" value="&lt;font face=&quot;Times New Roman&quot; style=&quot;font-size: 14px;&quot;&gt;&lt;b style=&quot;&quot;&gt;start&lt;/b&gt;&lt;/font&gt;" style="strokeWidth=2;html=1;shape=mxgraph.flowchart.start_2;whiteSpace=wrap;" vertex="1" parent="WIyWlLk6GJQsqaUBKTNV-1">
          <mxGeometry x="288.75" y="60" width="67.5" height="60" as="geometry" />
        </mxCell>
        <mxCell id="QhidVBxk3gNzxvD4NKaG-14" value="" style="edgeStyle=orthogonalEdgeStyle;rounded=0;orthogonalLoop=1;jettySize=auto;html=1;" edge="1" parent="WIyWlLk6GJQsqaUBKTNV-1" source="QhidVBxk3gNzxvD4NKaG-1" target="QhidVBxk3gNzxvD4NKaG-11">
          <mxGeometry relative="1" as="geometry" />
        </mxCell>
        <mxCell id="QhidVBxk3gNzxvD4NKaG-1" value="Login" style="rounded=1;whiteSpace=wrap;html=1;absoluteArcSize=1;arcSize=14;strokeWidth=2;" vertex="1" parent="WIyWlLk6GJQsqaUBKTNV-1">
          <mxGeometry x="245" y="160" width="155" height="50" as="geometry" />
        </mxCell>
        <mxCell id="QhidVBxk3gNzxvD4NKaG-6" value="" style="edgeStyle=orthogonalEdgeStyle;rounded=0;orthogonalLoop=1;jettySize=auto;html=1;entryX=1;entryY=0.5;entryDx=0;entryDy=0;exitX=1;exitY=0.5;exitDx=0;exitDy=0;exitPerimeter=0;" edge="1" parent="WIyWlLk6GJQsqaUBKTNV-1" source="QhidVBxk3gNzxvD4NKaG-2" target="QhidVBxk3gNzxvD4NKaG-1">
          <mxGeometry relative="1" as="geometry">
            <mxPoint x="440" y="180" as="targetPoint" />
            <Array as="points">
              <mxPoint x="435" y="400" />
              <mxPoint x="435" y="185" />
            </Array>
          </mxGeometry>
        </mxCell>
        <mxCell id="QhidVBxk3gNzxvD4NKaG-36" value="No" style="edgeLabel;html=1;align=center;verticalAlign=middle;resizable=0;points=[];" vertex="1" connectable="0" parent="QhidVBxk3gNzxvD4NKaG-6">
          <mxGeometry x="-0.1264" relative="1" as="geometry">
            <mxPoint y="1" as="offset" />
          </mxGeometry>
        </mxCell>
        <mxCell id="QhidVBxk3gNzxvD4NKaG-27" value="" style="edgeStyle=orthogonalEdgeStyle;rounded=0;orthogonalLoop=1;jettySize=auto;html=1;entryX=0.5;entryY=0;entryDx=0;entryDy=0;entryPerimeter=0;" edge="1" parent="WIyWlLk6GJQsqaUBKTNV-1" source="QhidVBxk3gNzxvD4NKaG-2" target="QhidVBxk3gNzxvD4NKaG-37">
          <mxGeometry relative="1" as="geometry">
            <mxPoint x="323" y="520" as="targetPoint" />
            <Array as="points" />
          </mxGeometry>
        </mxCell>
        <mxCell id="QhidVBxk3gNzxvD4NKaG-35" value="Yes" style="edgeLabel;html=1;align=center;verticalAlign=middle;resizable=0;points=[];" vertex="1" connectable="0" parent="QhidVBxk3gNzxvD4NKaG-27">
          <mxGeometry x="-0.2333" y="-2" relative="1" as="geometry">
            <mxPoint as="offset" />
          </mxGeometry>
        </mxCell>
        <mxCell id="QhidVBxk3gNzxvD4NKaG-2" value="correct credentials?" style="strokeWidth=2;html=1;shape=mxgraph.flowchart.decision;whiteSpace=wrap;" vertex="1" parent="WIyWlLk6GJQsqaUBKTNV-1">
          <mxGeometry x="272.5" y="350" width="100" height="100" as="geometry" />
        </mxCell>
        <mxCell id="QhidVBxk3gNzxvD4NKaG-21" value="" style="edgeStyle=orthogonalEdgeStyle;rounded=0;orthogonalLoop=1;jettySize=auto;html=1;entryX=0.5;entryY=0;entryDx=0;entryDy=0;" edge="1" parent="WIyWlLk6GJQsqaUBKTNV-1" source="QhidVBxk3gNzxvD4NKaG-10" target="QhidVBxk3gNzxvD4NKaG-22">
          <mxGeometry relative="1" as="geometry">
            <mxPoint x="70" y="270" as="targetPoint" />
          </mxGeometry>
        </mxCell>
        <mxCell id="QhidVBxk3gNzxvD4NKaG-10" value="3 Incorrect &lt;br&gt;Trials?" style="strokeWidth=2;html=1;shape=mxgraph.flowchart.decision;whiteSpace=wrap;" vertex="1" parent="WIyWlLk6GJQsqaUBKTNV-1">
          <mxGeometry x="20" y="135" width="100" height="100" as="geometry" />
        </mxCell>
        <mxCell id="QhidVBxk3gNzxvD4NKaG-15" value="" style="edgeStyle=orthogonalEdgeStyle;rounded=0;orthogonalLoop=1;jettySize=auto;html=1;" edge="1" parent="WIyWlLk6GJQsqaUBKTNV-1" source="QhidVBxk3gNzxvD4NKaG-11" target="QhidVBxk3gNzxvD4NKaG-2">
          <mxGeometry relative="1" as="geometry" />
        </mxCell>
        <mxCell id="QhidVBxk3gNzxvD4NKaG-11" value="Enter Email &lt;br&gt;and Password ?" style="shape=parallelogram;html=1;strokeWidth=2;perimeter=parallelogramPerimeter;whiteSpace=wrap;rounded=1;arcSize=12;size=0.23;" vertex="1" parent="WIyWlLk6GJQsqaUBKTNV-1">
          <mxGeometry x="225" y="250" width="195" height="60" as="geometry" />
        </mxCell>
        <mxCell id="QhidVBxk3gNzxvD4NKaG-20" style="edgeStyle=orthogonalEdgeStyle;rounded=0;orthogonalLoop=1;jettySize=auto;html=1;exitX=0;exitY=0.5;exitDx=0;exitDy=0;entryX=1;entryY=0.5;entryDx=0;entryDy=0;entryPerimeter=0;" edge="1" parent="WIyWlLk6GJQsqaUBKTNV-1" source="QhidVBxk3gNzxvD4NKaG-1" target="QhidVBxk3gNzxvD4NKaG-10">
          <mxGeometry relative="1" as="geometry" />
        </mxCell>
        <mxCell id="QhidVBxk3gNzxvD4NKaG-22" value="" style="ellipse;html=1;shape=endState;fillColor=strokeColor;" vertex="1" parent="WIyWlLk6GJQsqaUBKTNV-1">
          <mxGeometry x="51.25" y="270" width="37.5" height="40" as="geometry" />
        </mxCell>
        <mxCell id="QhidVBxk3gNzxvD4NKaG-24" value="" style="endArrow=none;html=1;rounded=0;strokeWidth=5;" edge="1" parent="WIyWlLk6GJQsqaUBKTNV-1">
          <mxGeometry width="50" height="50" relative="1" as="geometry">
            <mxPoint x="145" y="650" as="sourcePoint" />
            <mxPoint x="750" y="650" as="targetPoint" />
            <Array as="points">
              <mxPoint x="475" y="650" />
            </Array>
          </mxGeometry>
        </mxCell>
        <mxCell id="QhidVBxk3gNzxvD4NKaG-49" style="edgeStyle=orthogonalEdgeStyle;rounded=0;orthogonalLoop=1;jettySize=auto;html=1;exitX=0.5;exitY=1;exitDx=0;exitDy=0;" edge="1" parent="WIyWlLk6GJQsqaUBKTNV-1" source="QhidVBxk3gNzxvD4NKaG-28">
          <mxGeometry relative="1" as="geometry">
            <mxPoint x="228" y="780" as="targetPoint" />
          </mxGeometry>
        </mxCell>
        <mxCell id="QhidVBxk3gNzxvD4NKaG-28" value="Manage Loans" style="rounded=1;whiteSpace=wrap;html=1;absoluteArcSize=1;arcSize=14;strokeWidth=2;" vertex="1" parent="WIyWlLk6GJQsqaUBKTNV-1">
          <mxGeometry x="150" y="700" width="155" height="50" as="geometry" />
        </mxCell>
        <mxCell id="QhidVBxk3gNzxvD4NKaG-29" value="Manage Borrowers" style="rounded=1;whiteSpace=wrap;html=1;absoluteArcSize=1;arcSize=14;strokeWidth=2;" vertex="1" parent="WIyWlLk6GJQsqaUBKTNV-1">
          <mxGeometry x="600" y="700" width="155" height="50" as="geometry" />
        </mxCell>
        <mxCell id="QhidVBxk3gNzxvD4NKaG-30" value="Manage Lenders" style="rounded=1;whiteSpace=wrap;html=1;absoluteArcSize=1;arcSize=14;strokeWidth=2;" vertex="1" parent="WIyWlLk6GJQsqaUBKTNV-1">
          <mxGeometry x="800" y="700" width="155" height="50" as="geometry" />
        </mxCell>
        <mxCell id="QhidVBxk3gNzxvD4NKaG-40" value="" style="edgeStyle=orthogonalEdgeStyle;rounded=0;orthogonalLoop=1;jettySize=auto;html=1;" edge="1" parent="WIyWlLk6GJQsqaUBKTNV-1" source="QhidVBxk3gNzxvD4NKaG-37">
          <mxGeometry relative="1" as="geometry">
            <mxPoint x="322.5" y="650" as="targetPoint" />
          </mxGeometry>
        </mxCell>
        <mxCell id="QhidVBxk3gNzxvD4NKaG-41" value="Yes" style="edgeLabel;html=1;align=center;verticalAlign=middle;resizable=0;points=[];" vertex="1" connectable="0" parent="QhidVBxk3gNzxvD4NKaG-40">
          <mxGeometry x="-0.01" y="-3" relative="1" as="geometry">
            <mxPoint x="-2" y="-2" as="offset" />
          </mxGeometry>
        </mxCell>
        <mxCell id="QhidVBxk3gNzxvD4NKaG-42" style="edgeStyle=orthogonalEdgeStyle;rounded=0;orthogonalLoop=1;jettySize=auto;html=1;exitX=1;exitY=0.5;exitDx=0;exitDy=0;exitPerimeter=0;entryX=0.5;entryY=0;entryDx=0;entryDy=0;" edge="1" parent="WIyWlLk6GJQsqaUBKTNV-1" source="QhidVBxk3gNzxvD4NKaG-37" target="QhidVBxk3gNzxvD4NKaG-30">
          <mxGeometry relative="1" as="geometry">
            <mxPoint x="680" y="640" as="targetPoint" />
          </mxGeometry>
        </mxCell>
        <mxCell id="QhidVBxk3gNzxvD4NKaG-43" value="No, admin" style="edgeLabel;html=1;align=center;verticalAlign=middle;resizable=0;points=[];" vertex="1" connectable="0" parent="QhidVBxk3gNzxvD4NKaG-42">
          <mxGeometry x="-0.2108" y="-3" relative="1" as="geometry">
            <mxPoint x="1" as="offset" />
          </mxGeometry>
        </mxCell>
        <mxCell id="QhidVBxk3gNzxvD4NKaG-37" value="Logged user &lt;br&gt;is Lender?" style="strokeWidth=2;html=1;shape=mxgraph.flowchart.decision;whiteSpace=wrap;" vertex="1" parent="WIyWlLk6GJQsqaUBKTNV-1">
          <mxGeometry x="272.5" y="500" width="100" height="100" as="geometry" />
        </mxCell>
        <mxCell id="QhidVBxk3gNzxvD4NKaG-44" value="" style="endArrow=classic;html=1;rounded=0;entryX=0.5;entryY=0;entryDx=0;entryDy=0;" edge="1" parent="WIyWlLk6GJQsqaUBKTNV-1" target="QhidVBxk3gNzxvD4NKaG-28">
          <mxGeometry width="50" height="50" relative="1" as="geometry">
            <mxPoint x="228" y="650" as="sourcePoint" />
            <mxPoint x="240" y="690" as="targetPoint" />
            <Array as="points">
              <mxPoint x="228" y="680" />
            </Array>
          </mxGeometry>
        </mxCell>
        <mxCell id="QhidVBxk3gNzxvD4NKaG-45" value="" style="endArrow=classic;html=1;rounded=0;" edge="1" parent="WIyWlLk6GJQsqaUBKTNV-1" target="QhidVBxk3gNzxvD4NKaG-29">
          <mxGeometry width="50" height="50" relative="1" as="geometry">
            <mxPoint x="678" y="650" as="sourcePoint" />
            <mxPoint x="238" y="710" as="targetPoint" />
            <Array as="points" />
          </mxGeometry>
        </mxCell>
        <mxCell id="QhidVBxk3gNzxvD4NKaG-48" value="" style="endArrow=none;html=1;rounded=0;strokeWidth=5;" edge="1" parent="WIyWlLk6GJQsqaUBKTNV-1">
          <mxGeometry width="50" height="50" relative="1" as="geometry">
            <mxPoint x="32.5" y="780" as="sourcePoint" />
            <mxPoint x="540" y="780" as="targetPoint" />
            <Array as="points">
              <mxPoint x="362.5" y="780" />
            </Array>
          </mxGeometry>
        </mxCell>
        <mxCell id="QhidVBxk3gNzxvD4NKaG-55" style="edgeStyle=orthogonalEdgeStyle;rounded=0;orthogonalLoop=1;jettySize=auto;html=1;exitX=0.5;exitY=1;exitDx=0;exitDy=0;entryX=0.5;entryY=0;entryDx=0;entryDy=0;" edge="1" parent="WIyWlLk6GJQsqaUBKTNV-1" source="QhidVBxk3gNzxvD4NKaG-50" target="QhidVBxk3gNzxvD4NKaG-53">
          <mxGeometry relative="1" as="geometry" />
        </mxCell>
        <mxCell id="QhidVBxk3gNzxvD4NKaG-50" value="Pending Loans" style="rounded=1;whiteSpace=wrap;html=1;absoluteArcSize=1;arcSize=14;strokeWidth=2;" vertex="1" parent="WIyWlLk6GJQsqaUBKTNV-1">
          <mxGeometry x="30" y="820" width="155" height="50" as="geometry" />
        </mxCell>
        <mxCell id="QhidVBxk3gNzxvD4NKaG-51" value="Approved Loans" style="rounded=1;whiteSpace=wrap;html=1;absoluteArcSize=1;arcSize=14;strokeWidth=2;" vertex="1" parent="WIyWlLk6GJQsqaUBKTNV-1">
          <mxGeometry x="210" y="820" width="155" height="50" as="geometry" />
        </mxCell>
        <mxCell id="QhidVBxk3gNzxvD4NKaG-52" value="Rejected Loans" style="rounded=1;whiteSpace=wrap;html=1;absoluteArcSize=1;arcSize=14;strokeWidth=2;" vertex="1" parent="WIyWlLk6GJQsqaUBKTNV-1">
          <mxGeometry x="390" y="820" width="155" height="50" as="geometry" />
        </mxCell>
        <mxCell id="QhidVBxk3gNzxvD4NKaG-53" value="Review L oan" style="whiteSpace=wrap;html=1;rounded=1;arcSize=14;strokeWidth=2;" vertex="1" parent="WIyWlLk6GJQsqaUBKTNV-1">
          <mxGeometry x="27.5" y="910" width="160" height="50" as="geometry" />
        </mxCell>
        <mxCell id="QhidVBxk3gNzxvD4NKaG-56" value="Approve" style="strokeWidth=2;html=1;shape=mxgraph.flowchart.decision;whiteSpace=wrap;" vertex="1" parent="WIyWlLk6GJQsqaUBKTNV-1">
          <mxGeometry x="57.5" y="1000" width="100" height="100" as="geometry" />
        </mxCell>
        <mxCell id="QhidVBxk3gNzxvD4NKaG-58" style="edgeStyle=orthogonalEdgeStyle;rounded=0;orthogonalLoop=1;jettySize=auto;html=1;exitX=0.5;exitY=1;exitDx=0;exitDy=0;entryX=0.5;entryY=0;entryDx=0;entryDy=0;entryPerimeter=0;" edge="1" parent="WIyWlLk6GJQsqaUBKTNV-1" source="QhidVBxk3gNzxvD4NKaG-53" target="QhidVBxk3gNzxvD4NKaG-56">
          <mxGeometry relative="1" as="geometry" />
        </mxCell>
      </root>
    </mxGraphModel>
  </diagram>
</mxfile>
